<svg width="16" height="16" viewBox="0 0 16 16" fill="none" xmlns="http://www.w3.org/2000/svg">
<path d="M1.33334 7.33334H8.66669C9.40303 7.33334 10 6.73638 10 6V1.33334C10 0.596969 9.40303 0 8.66666 0H1.33334C0.596969 0 0 0.596969 0 1.33334V6C0 6.73638 0.596969 7.33334 1.33334 7.33334Z" fill="#EDF67D"/>
<path d="M15.7722 0.588C15.5244 0.220438 15.1101 6.25e-05 14.6668 0H12.6668C11.9305 0 11.3335 0.596969 11.3335 1.33334V6C11.3335 6.73638 11.9304 7.33334 12.6668 7.33334H14.6668C15.4032 7.33334 16.0002 6.73638 16.0002 6V1.33334C16.0006 1.06766 15.9212 0.807969 15.7722 0.588Z" fill="#EDF67D"/>
<path d="M4.07866 8.89466C3.85869 8.74566 3.599 8.66622 3.33331 8.66666H1.33331C0.596969 8.66666 0 9.26363 0 10V14.6667C0 15.4031 0.596969 16 1.33334 16H3.33334C4.06972 16 4.66669 15.403 4.66669 14.6667V10C4.66659 9.55672 4.44622 9.14247 4.07866 8.89466Z" fill="#EDF67D"/>
<path d="M15.412 8.89466C15.192 8.74566 14.9323 8.66622 14.6667 8.66666H7.33334C6.59697 8.66666 6 9.26363 6 10V14.6667C6 15.4031 6.59697 16 7.33334 16H14.6667C15.4031 16 16 15.4031 16 14.6667V10C15.9999 9.55672 15.7796 9.14247 15.412 8.89466Z" fill="#EDF67D"/>
</svg>
