<svg width="16" height="14" viewBox="0 0 16 14" fill="none" xmlns="http://www.w3.org/2000/svg">
<path d="M14.7338 2.35591C14.1367 1.29441 13.0752 0.697311 11.881 0.697311H3.98603C2.79184 0.697311 1.73031 1.29441 1.13321 2.35591C0.403434 3.68278 0.00537109 5.14237 0.00537109 6.66828C0.00537109 10.3172 1.46493 13.3027 3.32259 13.3027C4.31775 13.3027 5.1139 12.3739 5.711 10.4499C5.77734 10.1845 6.04271 9.9855 6.37443 9.9855H9.62531C9.89068 9.9855 10.1561 10.1845 10.2887 10.4499C10.8858 12.3739 11.682 13.3027 12.6772 13.3027C14.5348 13.3027 15.9944 10.3172 15.9944 6.66828C15.8617 5.14234 15.4636 3.68278 14.7338 2.35591ZM5.97637 6.00484H5.31293V6.66828C5.31293 7.06634 5.04756 7.33172 4.6495 7.33172C4.25143 7.33172 3.98606 7.06634 3.98606 6.66828V6.00484H3.32262C2.92456 6.00484 2.65918 5.73947 2.65918 5.34141C2.65918 4.94334 2.92456 4.67797 3.32262 4.67797H3.98606V4.01453C3.98606 3.61647 4.25143 3.35109 4.6495 3.35109C5.04756 3.35109 5.31293 3.61647 5.31293 4.01453V4.67797H5.97637C6.37443 4.67797 6.63981 4.94334 6.63981 5.34141C6.63981 5.73947 6.37443 6.00484 5.97637 6.00484ZM10.3551 7.33172C9.82434 7.33172 9.35993 6.86731 9.35993 6.33656C9.35993 5.80581 9.82434 5.34141 10.3551 5.34141C10.8858 5.34141 11.3502 5.80581 11.3502 6.33656C11.3502 6.86731 10.8195 7.33172 10.3551 7.33172ZM12.2791 5.34141C11.8147 5.34141 11.2839 4.877 11.2839 4.34625C11.2839 3.8155 11.8147 3.35109 12.2791 3.35109C12.7435 3.35109 13.2742 3.8155 13.2742 4.34625C13.2742 4.877 12.8098 5.34141 12.2791 5.34141Z" fill="#EDF67D"/>
</svg>
