<svg width="25" height="21" viewBox="0 0 25 21" fill="none" xmlns="http://www.w3.org/2000/svg">
<path d="M5.20839 20.9167C5.76093 20.9167 6.29083 20.6972 6.68153 20.3065C7.07223 19.9158 7.29173 19.3859 7.29173 18.8333V12.5833C7.29173 12.0308 7.07223 11.5009 6.68153 11.1102C6.29083 10.7195 5.76093 10.5 5.20839 10.5V9.45833C5.20839 7.52446 5.97662 5.66979 7.34407 4.30234C8.71153 2.93489 10.5662 2.16666 12.5001 2.16666C14.4339 2.16666 16.2886 2.93489 17.656 4.30234C19.0235 5.66979 19.7917 7.52446 19.7917 9.45833V10.5C19.2392 10.5 18.7093 10.7195 18.3186 11.1102C17.9279 11.5009 17.7084 12.0308 17.7084 12.5833V18.8333H14.5834C14.3071 18.8333 14.0422 18.9431 13.8468 19.1384C13.6515 19.3338 13.5417 19.5987 13.5417 19.875C13.5417 20.1513 13.6515 20.4162 13.8468 20.6116C14.0422 20.8069 14.3071 20.9167 14.5834 20.9167H19.7917C20.9855 20.9131 22.1418 20.4995 23.0671 19.7453C23.9923 18.991 24.6304 17.9417 24.8745 16.7732C25.1185 15.6046 24.9538 14.3877 24.4077 13.3261C23.8617 12.2645 22.9676 11.4227 21.8751 10.9417V9.45833C21.8751 6.97192 20.8873 4.58736 19.1292 2.8292C17.371 1.07105 14.9865 0.0833282 12.5001 0.0833282C10.0137 0.0833282 7.62909 1.07105 5.87093 2.8292C4.11278 4.58736 3.12506 6.97192 3.12506 9.45833V10.9417C2.03252 11.4227 1.13839 12.2645 0.592375 13.3261C0.0463549 14.3877 -0.118418 15.6046 0.125641 16.7732C0.3697 17.9417 1.00778 18.991 1.93305 19.7453C2.85832 20.4995 4.01463 20.9131 5.20839 20.9167Z" fill="#EDF67D"/>
</svg>
