<svg width="68" height="39" viewBox="0 0 68 39" fill="none" xmlns="http://www.w3.org/2000/svg">
<g filter="url(#filter0_d_23_864)">
<path d="M23.7919 0.884613C29.7878 0.884564 30.8459 12.062 33.3148 12.062C35.7837 12.062 38.2526 0.884613 43.543 0.884613C46.2246 0.884613 51.6908 8.22709 56.6223 15.9338C59.4742 20.3906 63.9996 27.9813 63.9995 28.32C63.9995 29.4655 58.7091 31.5716 51.6551 28.32C49.702 27.4197 46.4352 24.2555 43.8957 18.8362C42.1322 22.562 37.5472 30.0135 33.3148 30.0135C29.0824 30.0135 24.9676 22.562 23.4392 18.8362C21.4641 23.4427 17.6785 27.0781 16.0325 28.32C11.2358 31.5716 4.04081 28.9974 4.0408 28.32C3.54109 27.9813 7.73939 20.9416 10.7421 15.9338C15.1986 8.50139 20.6241 0.884639 23.7919 0.884613Z" fill="#5719CA"/>
<path d="M23.7919 0.884613C29.7878 0.884564 30.8459 12.062 33.3148 12.062C35.7837 12.062 38.2526 0.884613 43.543 0.884613C46.2246 0.884613 51.6908 8.22709 56.6223 15.9338C59.4742 20.3906 63.9996 27.9813 63.9995 28.32C63.9995 29.4655 58.7091 31.5716 51.6551 28.32C49.702 27.4197 46.4352 24.2555 43.8957 18.8362C42.1322 22.562 37.5472 30.0135 33.3148 30.0135C29.0824 30.0135 24.9676 22.562 23.4392 18.8362C21.4641 23.4427 17.6785 27.0781 16.0325 28.32C11.2358 31.5716 4.04081 28.9974 4.0408 28.32C3.54109 27.9813 7.73939 20.9416 10.7421 15.9338C15.1986 8.50139 20.6241 0.884639 23.7919 0.884613Z" fill="url(#paint0_radial_23_864)" fill-opacity="0.3"/>
<path fill-rule="evenodd" clip-rule="evenodd" d="M23.7921 0.884613C27.4444 0.884583 29.2645 5.03184 30.6874 8.27392C31.6005 10.3543 32.35 12.1931 33.315 12.1931C34.317 12.1931 35.3191 10.2208 36.5098 8.03288C38.2528 4.83015 40.4353 0.884613 43.5432 0.884613C47.5585 0.884613 51.691 8.22709 56.6225 15.9338C49.31 9.54746 45.0912 15.2077 43.8959 18.8362C42.1325 22.5619 37.5474 30.0135 33.315 30.0135C29.0826 30.0135 24.9678 22.5619 23.4394 18.8362C18.6427 9.62336 12.976 13.0626 10.7423 15.9338C15.1988 8.50139 20.6243 0.884639 23.7921 0.884613Z" fill="#8142F6"/>
<path fill-rule="evenodd" clip-rule="evenodd" d="M23.7921 0.884613C27.4444 0.884583 29.2645 5.03184 30.6874 8.27392C31.6005 10.3543 32.35 12.1931 33.315 12.1931C34.317 12.1931 35.3191 10.2208 36.5098 8.03288C38.2528 4.83015 40.4353 0.884613 43.5432 0.884613C47.5585 0.884613 51.691 8.22709 56.6225 15.9338C49.31 9.54746 45.0912 15.2077 43.8959 18.8362C42.1325 22.5619 37.5474 30.0135 33.315 30.0135C29.0826 30.0135 24.9678 22.5619 23.4394 18.8362C18.6427 9.62336 12.976 13.0626 10.7423 15.9338C15.1988 8.50139 20.6243 0.884639 23.7921 0.884613Z" fill="url(#paint1_radial_23_864)" fill-opacity="0.3"/>
</g>
<defs>
<filter id="filter0_d_23_864" x="0" y="0.884613" width="67.9995" height="37.1701" filterUnits="userSpaceOnUse" color-interpolation-filters="sRGB">
<feFlood flood-opacity="0" result="BackgroundImageFix"/>
<feColorMatrix in="SourceAlpha" type="matrix" values="0 0 0 0 0 0 0 0 0 0 0 0 0 0 0 0 0 0 127 0" result="hardAlpha"/>
<feOffset dy="4"/>
<feGaussianBlur stdDeviation="2"/>
<feComposite in2="hardAlpha" operator="out"/>
<feColorMatrix type="matrix" values="0 0 0 0 0 0 0 0 0 0 0 0 0 0 0 0 0 0 0.25 0"/>
<feBlend mode="normal" in2="BackgroundImageFix" result="effect1_dropShadow_23_864"/>
<feBlend mode="normal" in="SourceGraphic" in2="effect1_dropShadow_23_864" result="shape"/>
</filter>
<radialGradient id="paint0_radial_23_864" cx="0" cy="0" r="1" gradientUnits="userSpaceOnUse" gradientTransform="translate(31.904 18.1587) rotate(90.9178) scale(22.0188 45.1646)">
<stop stop-color="#411F9D"/>
<stop offset="1" stop-color="white"/>
</radialGradient>
<radialGradient id="paint1_radial_23_864" cx="0" cy="0" r="1" gradientUnits="userSpaceOnUse" gradientTransform="translate(32.9623 0.884614) rotate(87.9269) scale(29.2499 59.9919)">
<stop stop-color="white"/>
<stop offset="1" stop-color="white" stop-opacity="0"/>
</radialGradient>
</defs>
</svg>
