<svg width="17" height="18" viewBox="0 0 17 18" fill="none" xmlns="http://www.w3.org/2000/svg">
<path fill-rule="evenodd" clip-rule="evenodd" d="M7.27223 0.937501H8.85277C9.70239 0.937482 10.3967 0.937467 10.9448 1.01116C11.5178 1.0882 12.0146 1.25491 12.4111 1.65143C12.8076 2.04795 12.9743 2.5447 13.0513 3.11766C13.0892 3.39944 13.1076 3.71984 13.1166 4.08011C13.9102 4.20815 14.5607 4.46019 15.0816 4.98108C15.6428 5.54235 15.8919 6.25406 16.0101 7.13338C16.125 7.98779 16.125 9.07952 16.125 10.4578V10.5425C16.125 11.9208 16.125 13.0125 16.0101 13.8669C15.8919 14.7462 15.6428 15.4579 15.0816 16.0192C14.5203 16.5805 13.8086 16.8296 12.9293 16.9478C12.0749 17.0627 10.9831 17.0627 9.60481 17.0626H6.52019C5.14187 17.0627 4.05014 17.0627 3.19573 16.9478C2.31642 16.8296 1.60471 16.5805 1.04343 16.0192C0.48216 15.4579 0.233072 14.7462 0.114851 13.8669C-2.11224e-05 13.0125 -1.16499e-05 11.9208 2.41212e-07 10.5425V10.4578C-1.16499e-05 9.07951 -2.11224e-05 7.98779 0.114851 7.13338C0.233072 6.25406 0.48216 5.54235 1.04343 4.98108C1.56432 4.46019 2.21476 4.20815 3.00843 4.08011C3.01737 3.71984 3.03578 3.39944 3.07366 3.11766C3.1507 2.5447 3.31741 2.04795 3.71393 1.65143C4.11045 1.25491 4.6072 1.0882 5.18016 1.01116C5.72831 0.937467 6.42261 0.937482 7.27223 0.937501ZM3 5.2246C2.45176 5.33466 2.10431 5.51119 1.83893 5.77657C1.52152 6.09398 1.33127 6.52871 1.22982 7.28328C1.1262 8.05403 1.125 9.07003 1.125 10.5001C1.125 11.9303 1.1262 12.9463 1.22982 13.717C1.33127 14.4716 1.52152 14.9063 1.83893 15.2237C2.15633 15.5411 2.59107 15.7314 3.34564 15.8328C4.11638 15.9365 5.13238 15.9376 6.5625 15.9376H9.5625C10.9926 15.9376 12.0086 15.9365 12.7794 15.8328C13.5339 15.7314 13.9687 15.5411 14.2861 15.2237C14.6035 14.9063 14.7937 14.4716 14.8952 13.717C14.9988 12.9463 15 11.9303 15 10.5001C15 9.07003 14.9988 8.05403 14.8952 7.28328C14.7937 6.52872 14.6035 6.09398 14.2861 5.77657C14.0207 5.51119 13.6732 5.33466 13.125 5.2246V6.09488C13.125 6.12948 13.125 6.16367 13.1251 6.19745C13.1257 6.78699 13.1262 7.25396 12.9303 7.67226C12.7344 8.09056 12.3753 8.38912 11.922 8.76606C11.896 8.78766 11.8697 8.80951 11.8432 8.83166L11.2753 9.30492C10.6105 9.85892 10.0717 10.3079 9.59612 10.6138C9.10075 10.9324 8.61831 11.1337 8.0625 11.1337C7.50669 11.1337 7.02426 10.9324 6.52888 10.6138C6.05334 10.3079 5.51454 9.85893 4.84978 9.30494L4.28184 8.83166C4.25526 8.80951 4.22898 8.78766 4.203 8.76606C3.7497 8.38912 3.39065 8.09056 3.19472 7.67226C2.9988 7.25396 2.9993 6.78699 2.99993 6.19745C2.99996 6.16366 3 6.12948 3 6.09488L3 5.2246ZM5.33007 2.12613C4.88185 2.18639 4.66208 2.29427 4.50942 2.44692C4.35677 2.59958 4.24889 2.81935 4.18863 3.26757C4.12619 3.73196 4.125 4.35022 4.125 5.25V6.09488C4.125 6.83836 4.13743 7.03264 4.21351 7.19508C4.28959 7.35752 4.43089 7.49145 5.00205 7.96742L5.54178 8.41719C6.2415 9.00029 6.7273 9.40381 7.13744 9.6676C7.53446 9.92294 7.8037 10.0087 8.0625 10.0087C8.3213 10.0087 8.59054 9.92294 8.98756 9.6676C9.3977 9.40381 9.88351 9.00029 10.5832 8.41719L11.1229 7.96742C11.6941 7.49145 11.8354 7.35752 11.9115 7.19508C11.9876 7.03265 12 6.83836 12 6.09488V5.25C12 4.35022 11.9988 3.73196 11.9364 3.26757C11.8761 2.81935 11.7682 2.59958 11.6156 2.44692C11.4629 2.29427 11.2431 2.18639 10.7949 2.12613C10.3305 2.0637 9.71229 2.0625 8.8125 2.0625H7.3125C6.41272 2.0625 5.79446 2.0637 5.33007 2.12613ZM6 4.5C6 4.18934 6.25184 3.9375 6.5625 3.9375H9.5625C9.87316 3.9375 10.125 4.18934 10.125 4.5C10.125 4.81066 9.87316 5.0625 9.5625 5.0625H6.5625C6.25184 5.0625 6 4.81066 6 4.5ZM6.75 6.75C6.75 6.43934 7.00184 6.1875 7.3125 6.1875H8.8125C9.12316 6.1875 9.375 6.43934 9.375 6.75C9.375 7.06066 9.12316 7.3125 8.8125 7.3125H7.3125C7.00184 7.3125 6.75 7.06066 6.75 6.75Z" fill="#F6F6F6"/>
</svg>
