<svg width="15" height="16" viewBox="0 0 15 16" fill="none" xmlns="http://www.w3.org/2000/svg">
<path d="M7.50721 1.16012C7.55686 0.85345 7.84676 0.645419 8.15343 0.695068C8.17241 0.698701 8.23349 0.710116 8.26549 0.717243C8.32949 0.731496 8.41876 0.753439 8.53006 0.785859C8.75265 0.850691 9.0636 0.957494 9.43681 1.1286C10.184 1.47116 11.1784 2.07042 12.2102 3.10227C13.2421 4.13412 13.8413 5.12848 14.1839 5.87568C14.355 6.2489 14.4618 6.55985 14.5266 6.78243C14.5591 6.89374 14.581 6.98301 14.5953 7.047C14.6024 7.07901 14.6076 7.1047 14.6112 7.12368L14.6155 7.14708C14.6652 7.45375 14.459 7.75564 14.1524 7.80528C13.8466 7.85479 13.5585 7.64776 13.5076 7.34254C13.5061 7.33434 13.5018 7.31232 13.4972 7.29156C13.4879 7.25002 13.4719 7.18415 13.4465 7.09704C13.3958 6.92279 13.3076 6.66379 13.1612 6.34453C12.8689 5.7068 12.3431 4.82616 11.4147 3.89776C10.4863 2.96936 9.6057 2.44362 8.96797 2.15125C8.64871 2.00488 8.38971 1.91673 8.21546 1.86597C8.12834 1.8406 8.01885 1.81547 7.97731 1.80622C7.67208 1.75535 7.4577 1.46591 7.50721 1.16012Z" fill="#F6F6F6"/>
<path fill-rule="evenodd" clip-rule="evenodd" d="M7.6769 3.74722C7.76224 3.44851 8.07358 3.27555 8.37229 3.36089L8.21775 3.90175C8.37229 3.36089 8.37229 3.36089 8.37229 3.36089L8.37337 3.3612L8.37451 3.36153L8.37702 3.36226L8.38283 3.364L8.39767 3.36862C8.40898 3.37224 8.4231 3.37695 8.43994 3.38292C8.47362 3.39487 8.51814 3.41187 8.57275 3.43528C8.68201 3.4821 8.83131 3.55442 9.01469 3.66295C9.38179 3.88021 9.88293 4.2411 10.4717 4.82982C11.0604 5.41855 11.4213 5.91969 11.6385 6.28679C11.7471 6.47018 11.8194 6.61947 11.8662 6.72874C11.8896 6.78334 11.9066 6.82786 11.9186 6.86154C11.9245 6.87838 11.9292 6.8925 11.9329 6.90381L11.9375 6.91865L11.9392 6.92447L11.94 6.92697L11.9403 6.92812C11.9403 6.92812 11.9406 6.9292 11.3997 7.08373L11.9406 6.9292C12.0259 7.2279 11.853 7.53924 11.5543 7.62458C11.2581 7.7092 10.9495 7.53988 10.8611 7.24584L10.8583 7.23776C10.8543 7.22649 10.8461 7.2043 10.8322 7.1719C10.8044 7.10714 10.7541 7.00122 10.6704 6.85978C10.5032 6.57722 10.2011 6.15028 9.67616 5.62532C9.1512 5.10036 8.72426 4.79833 8.4417 4.6311C8.30026 4.54739 8.19434 4.49706 8.12959 4.46931C8.09718 4.45543 8.075 4.44715 8.06373 4.44315L8.05564 4.44038C7.7616 4.35197 7.59228 4.04339 7.6769 3.74722Z" fill="#F6F6F6"/>
<path fill-rule="evenodd" clip-rule="evenodd" d="M1.31809 3.05519C2.57814 1.79514 4.7045 1.89093 5.58186 3.46302L6.06862 4.33522C6.64156 5.36183 6.3974 6.65714 5.55868 7.50612C5.54751 7.52142 5.4883 7.60762 5.48093 7.75823C5.47152 7.95047 5.53979 8.39506 6.22861 9.08388C6.91721 9.77248 7.36174 9.84092 7.55406 9.83156C7.70479 9.82423 7.79106 9.765 7.80638 9.75381C8.65536 8.91509 9.95067 8.67094 10.9773 9.24387L11.8495 9.73063C13.4216 10.608 13.5174 12.7344 12.2573 13.9944C11.5833 14.6684 10.6871 15.2673 9.63397 15.3072C8.07328 15.3664 5.48185 14.9633 2.91551 12.397C0.349173 9.83065 -0.0538673 7.23922 0.00529839 5.67852C0.0452231 4.62537 0.644093 3.72918 1.31809 3.05519ZM4.59949 4.01127C4.15023 3.20626 2.94296 3.02131 2.11358 3.85068C1.53207 4.4322 1.15402 5.07406 1.12949 5.72114C1.08015 7.02264 1.40148 9.29196 3.71101 11.6015C6.02053 13.911 8.28985 14.2323 9.59136 14.183C10.2384 14.1585 10.8803 13.7804 11.4618 13.1989C12.2912 12.3695 12.1062 11.1623 11.3012 10.713L10.429 10.2262C9.88648 9.92345 9.12439 10.0267 8.5894 10.5617C8.53684 10.6142 8.20232 10.9264 7.60872 10.9552C7.00105 10.9848 6.2655 10.7118 5.43312 9.87937C4.60046 9.04672 4.32752 8.31097 4.35728 7.70322C4.38634 7.10958 4.69851 6.77538 4.75074 6.72314C5.28573 6.18815 5.38904 5.42602 5.08625 4.88346L4.59949 4.01127Z" fill="#F6F6F6"/>
</svg>
