<svg width="16" height="16" viewBox="0 0 16 16" fill="none" xmlns="http://www.w3.org/2000/svg">
<path d="M1.83385 9.99999H-0.000151038V9.33333C-0.0102433 8.39858 0.237312 7.4791 0.715356 6.67578C1.1934 5.87245 1.88347 5.21631 2.70985 4.77933C3.52394 4.37793 4.40561 4.13151 5.30985 4.05266C4.91474 4.54155 4.51852 5.0611 4.12118 5.61133C3.22626 7.00126 2.46061 8.47029 1.83385 9.99999ZM10.3885 11.8753C8.99871 12.7714 7.52967 13.5382 5.99985 14.166V16H6.66652C7.60127 16.0101 8.52074 15.7625 9.32407 15.2845C10.1274 14.8064 10.7835 14.1164 11.2205 13.29C11.6219 12.4759 11.8683 11.5942 11.9472 10.69C11.4605 11.0833 10.941 11.4784 10.3885 11.8753ZM15.9999 1.99399C15.9112 4.89599 13.8219 7.77399 9.61185 10.794C8.46619 11.5367 7.25756 12.1774 5.99985 12.7087V12.3333C5.99687 11.7154 5.75008 11.1236 5.31314 10.6867C4.8762 10.2498 4.28444 10.003 3.66652 9.99999H3.29118C3.82312 8.7423 4.4647 7.53386 5.20852 6.38866C8.22118 2.18533 11.0945 0.0959924 13.9919 -7.62939e-06C15.4359 -7.62939e-06 15.9999 0.589992 15.9999 1.99399ZM11.9999 5.66666C11.9999 5.22463 11.8243 4.80071 11.5117 4.48815C11.1991 4.17559 10.7752 3.99999 10.3332 3.99999C9.89116 3.99999 9.46723 4.17559 9.15467 4.48815C8.84211 4.80071 8.66652 5.22463 8.66652 5.66666C8.66652 6.10869 8.84211 6.53261 9.15467 6.84517C9.46723 7.15773 9.89116 7.33333 10.3332 7.33333C10.7752 7.33333 11.1991 7.15773 11.5117 6.84517C11.8243 6.53261 11.9999 6.10869 11.9999 5.66666ZM0.915849 15.8567C1.66652 15.7233 3.47652 15.3513 4.08118 14.7473C4.26692 14.5616 4.41425 14.3411 4.51476 14.0984C4.61528 13.8558 4.66702 13.5957 4.66702 13.333C4.66702 13.0703 4.61528 12.8102 4.51476 12.5676C4.41425 12.3249 4.26692 12.1044 4.08118 11.9187C3.89545 11.7329 3.67495 11.5856 3.43228 11.4851C3.18961 11.3846 2.92952 11.3328 2.66685 11.3328C2.13637 11.3328 1.62762 11.5436 1.25252 11.9187C0.648516 12.5233 0.275849 14.3333 0.143182 15.084L-0.0214844 16.0213L0.915849 15.8567Z" fill="#EDF67D"/>
</svg>
