<svg width="18" height="18" viewBox="0 0 18 18" fill="none" xmlns="http://www.w3.org/2000/svg">
<path fill-rule="evenodd" clip-rule="evenodd" d="M5.3125 0.9375C5.62316 0.9375 5.875 1.18934 5.875 1.5V2.8125H6.0625C6.07372 2.8125 6.08491 2.8125 6.09606 2.8125C6.42067 2.81246 6.7183 2.81242 6.96041 2.84497C7.22702 2.88082 7.50881 2.96515 7.74058 3.19692C7.97235 3.42869 8.05668 3.71048 8.09253 3.97709C8.12508 4.2192 8.12504 4.51683 8.125 4.84144C8.125 4.8526 8.125 4.86378 8.125 4.875V5.91155C8.17516 5.95127 8.22382 5.99451 8.27091 6.04159C8.61251 6.38319 8.75176 6.80829 8.81507 7.27914C8.85878 7.60424 8.87062 7.99086 8.87382 8.4375H9.25L9.25 5.7825C9.24998 4.83874 9.24996 4.06724 9.33671 3.47858C9.42667 2.86817 9.62707 2.32315 10.1377 1.96928C10.6483 1.61541 11.229 1.61913 11.8322 1.74923C12.4138 1.87469 13.1362 2.1456 14.0198 2.477L14.0917 2.50397C14.5384 2.67144 14.9163 2.81314 15.2132 2.96387C15.5289 3.12416 15.8019 3.31771 16.0077 3.61471C16.2135 3.91172 16.2989 4.23525 16.3382 4.58718C16.375 4.91809 16.375 5.3217 16.375 5.79869V15.9375H16.5625C16.8732 15.9375 17.125 16.1893 17.125 16.5C17.125 16.8107 16.8732 17.0625 16.5625 17.0625H1.5625C1.25184 17.0625 1 16.8107 1 16.5C1 16.1893 1.25184 15.9375 1.5625 15.9375H1.75L1.75 8.961C1.74998 8.28714 1.74996 7.72523 1.80993 7.27914C1.87324 6.80829 2.01249 6.38319 2.35409 6.04159C2.40117 5.99451 2.44984 5.95127 2.5 5.91155V4.875C2.5 4.86378 2.5 4.85259 2.5 4.84144C2.49996 4.51683 2.49992 4.2192 2.53247 3.97709C2.56832 3.71048 2.65265 3.42869 2.88442 3.19692C3.11619 2.96515 3.39798 2.88082 3.66459 2.84497C3.9067 2.81242 4.20433 2.81246 4.52894 2.8125C4.54009 2.8125 4.55128 2.8125 4.5625 2.8125H4.75V1.5C4.75 1.18934 5.00184 0.9375 5.3125 0.9375ZM3.625 5.49309C4.06563 5.43746 4.61633 5.43748 5.2735 5.4375H5.3515C6.00867 5.43748 6.55937 5.43746 7 5.49309V4.875C7 4.50554 6.99881 4.28504 6.97756 4.127C6.96782 4.05458 6.95635 4.01831 6.94963 4.00197C6.94807 3.99819 6.94686 3.9957 6.9461 3.99425L6.94507 3.99243L6.94325 3.9914C6.9418 3.99064 6.93931 3.98943 6.93553 3.98787C6.91919 3.98115 6.88292 3.96968 6.8105 3.95994C6.65246 3.93869 6.43196 3.9375 6.0625 3.9375H4.5625C4.19304 3.9375 3.97254 3.93869 3.8145 3.95994C3.74208 3.96968 3.70581 3.98115 3.68947 3.98787C3.68569 3.98943 3.6832 3.99064 3.68175 3.9914L3.67993 3.99243L3.6789 3.99425C3.67814 3.9957 3.67693 3.99819 3.67537 4.00197C3.66865 4.01831 3.65718 4.05458 3.64744 4.127C3.62619 4.28504 3.625 4.50554 3.625 4.875V5.49309ZM2.875 15.9375H4.75L4.75 11.961C4.74998 11.2871 4.74996 10.7252 4.80993 10.2791C4.87324 9.80829 5.01249 9.38319 5.35409 9.04159C5.69569 8.69999 6.12079 8.56074 6.59164 8.49743C6.91641 8.45377 7.30258 8.4419 7.74865 8.43869C7.74549 8.01102 7.73497 7.68841 7.7001 7.42904C7.65357 7.08295 7.57315 6.93482 7.47541 6.83709C7.37767 6.73935 7.22955 6.65893 6.88346 6.6124C6.52118 6.56369 6.03551 6.5625 5.3125 6.5625C4.58949 6.5625 4.10382 6.56369 3.74154 6.6124C3.39545 6.65893 3.24732 6.73935 3.14959 6.83709C3.05185 6.93482 2.97143 7.08295 2.9249 7.42904C2.87619 7.79132 2.875 8.27699 2.875 9V15.9375ZM5.875 15.9375H12.25V12C12.25 11.277 12.2488 10.7913 12.2001 10.429C12.1536 10.0829 12.0732 9.93482 11.9754 9.83709C11.8777 9.73935 11.7296 9.65893 11.3835 9.6124C11.0212 9.56369 10.5355 9.5625 9.8125 9.5625H8.3125C7.58949 9.5625 7.10382 9.56369 6.74154 9.6124C6.39545 9.65893 6.24732 9.73935 6.14959 9.83709C6.05185 9.93482 5.97143 10.0829 5.9249 10.429C5.87619 10.7913 5.875 11.277 5.875 12V15.9375ZM13.375 15.9375H15.25V5.829C15.25 5.31359 15.2492 4.97306 15.2201 4.71179C15.1925 4.46454 15.1443 4.34394 15.0831 4.25551C15.0218 4.16707 14.9258 4.07962 14.7039 3.967C14.4695 3.848 14.151 3.72767 13.6684 3.5467C12.7304 3.19498 12.0859 2.95484 11.5949 2.84894C11.116 2.74562 10.9135 2.80041 10.7785 2.89395C10.6435 2.98748 10.5211 3.15783 10.4497 3.6426C10.3765 4.13948 10.375 4.8273 10.375 5.829V8.43868C10.8216 8.44188 11.2083 8.45372 11.5334 8.49743C12.0042 8.56074 12.4293 8.69999 12.7709 9.04159C13.1125 9.38319 13.2518 9.80829 13.3151 10.2791C13.375 10.7252 13.375 11.2871 13.375 11.961L13.375 15.9375ZM3.67993 3.99243C3.68018 3.99223 3.68023 3.99213 3.67993 3.99243C3.67959 3.99277 3.67972 3.99269 3.67993 3.99243ZM7 11.25C7 10.9393 7.25184 10.6875 7.5625 10.6875H10.5625C10.8732 10.6875 11.125 10.9393 11.125 11.25C11.125 11.5607 10.8732 11.8125 10.5625 11.8125H7.5625C7.25184 11.8125 7 11.5607 7 11.25ZM7 13.5C7 13.1893 7.25184 12.9375 7.5625 12.9375H10.5625C10.8732 12.9375 11.125 13.1893 11.125 13.5C11.125 13.8107 10.8732 14.0625 10.5625 14.0625H7.5625C7.25184 14.0625 7 13.8107 7 13.5Z" fill="#F6F6F6"/>
<path d="M6.94507 3.99243L6.9461 3.99425C6.94686 3.9957 6.94807 3.99819 6.94963 4.00197C6.95635 4.01831 6.96782 4.05458 6.97756 4.127C6.99881 4.28504 7 4.50554 7 4.875V5.49309C6.55937 5.43746 6.00867 5.43748 5.3515 5.4375H5.2735C4.61633 5.43748 4.06563 5.43746 3.625 5.49309V4.875C3.625 4.50554 3.62619 4.28504 3.64744 4.127C3.65718 4.05458 3.66865 4.01831 3.67537 4.00197C3.67693 3.99819 3.67814 3.9957 3.6789 3.99425L3.67993 3.99243M6.94507 3.99243L6.94325 3.9914C6.9418 3.99064 6.93931 3.98943 6.93553 3.98787C6.91919 3.98115 6.88292 3.96968 6.8105 3.95994C6.65246 3.93869 6.43196 3.9375 6.0625 3.9375H4.5625C4.19304 3.9375 3.97254 3.93869 3.8145 3.95994C3.74208 3.96968 3.70581 3.98115 3.68947 3.98787C3.68569 3.98943 3.6832 3.99064 3.68175 3.9914L3.67993 3.99243M6.94507 3.99243C6.94481 3.99222 6.94473 3.99209 6.94507 3.99243ZM3.67993 3.99243C3.68023 3.99213 3.68018 3.99223 3.67993 3.99243ZM3.67993 3.99243C3.67972 3.99269 3.67959 3.99277 3.67993 3.99243ZM5.875 1.5C5.875 1.18934 5.62316 0.9375 5.3125 0.9375C5.00184 0.9375 4.75 1.18934 4.75 1.5V2.8125H4.5625C4.55128 2.8125 4.54009 2.8125 4.52894 2.8125C4.20433 2.81246 3.9067 2.81242 3.66459 2.84497C3.39798 2.88082 3.11619 2.96515 2.88442 3.19692C2.65265 3.42869 2.56832 3.71048 2.53247 3.97709C2.49992 4.2192 2.49996 4.51683 2.5 4.84144C2.5 4.85259 2.5 4.86378 2.5 4.875V5.91155C2.44984 5.95127 2.40117 5.99451 2.35409 6.04159C2.01249 6.38319 1.87324 6.80829 1.80993 7.27914C1.74996 7.72523 1.74998 8.28714 1.75 8.961L1.75 15.9375H1.5625C1.25184 15.9375 1 16.1893 1 16.5C1 16.8107 1.25184 17.0625 1.5625 17.0625H16.5625C16.8732 17.0625 17.125 16.8107 17.125 16.5C17.125 16.1893 16.8732 15.9375 16.5625 15.9375H16.375V5.79869C16.375 5.3217 16.375 4.91809 16.3382 4.58718C16.2989 4.23525 16.2135 3.91172 16.0077 3.61471C15.8019 3.31771 15.5289 3.12416 15.2132 2.96387C14.9163 2.81314 14.5384 2.67144 14.0917 2.50397L14.0198 2.477C13.1362 2.1456 12.4138 1.87469 11.8322 1.74923C11.229 1.61913 10.6483 1.61541 10.1377 1.96928C9.62707 2.32315 9.42667 2.86817 9.33671 3.47858C9.24996 4.06724 9.24998 4.83874 9.25 5.7825L9.25 8.4375H8.87382C8.87062 7.99086 8.85878 7.60424 8.81507 7.27914C8.75176 6.80829 8.61251 6.38319 8.27091 6.04159C8.22382 5.99451 8.17516 5.95127 8.125 5.91155V4.875C8.125 4.86378 8.125 4.8526 8.125 4.84144C8.12504 4.51683 8.12508 4.2192 8.09253 3.97709C8.05668 3.71048 7.97235 3.42869 7.74058 3.19692C7.50881 2.96515 7.22702 2.88082 6.96041 2.84497C6.7183 2.81242 6.42067 2.81246 6.09606 2.8125C6.08491 2.8125 6.07372 2.8125 6.0625 2.8125H5.875V1.5ZM4.75 15.9375H2.875V9C2.875 8.27699 2.87619 7.79132 2.9249 7.42904C2.97143 7.08295 3.05185 6.93482 3.14959 6.83709C3.24732 6.73935 3.39545 6.65893 3.74154 6.6124C4.10382 6.56369 4.58949 6.5625 5.3125 6.5625C6.03551 6.5625 6.52118 6.56369 6.88346 6.6124C7.22955 6.65893 7.37767 6.73935 7.47541 6.83709C7.57315 6.93482 7.65357 7.08295 7.7001 7.42904C7.73497 7.68841 7.74549 8.01102 7.74865 8.43869C7.30258 8.4419 6.91641 8.45377 6.59164 8.49743C6.12079 8.56074 5.69569 8.69999 5.35409 9.04159C5.01249 9.38319 4.87324 9.80829 4.80993 10.2791C4.74996 10.7252 4.74998 11.2871 4.75 11.961L4.75 15.9375ZM12.25 15.9375H5.875V12C5.875 11.277 5.87619 10.7913 5.9249 10.429C5.97143 10.0829 6.05185 9.93482 6.14959 9.83709C6.24732 9.73935 6.39545 9.65893 6.74154 9.6124C7.10382 9.56369 7.58949 9.5625 8.3125 9.5625H9.8125C10.5355 9.5625 11.0212 9.56369 11.3835 9.6124C11.7296 9.65893 11.8777 9.73935 11.9754 9.83709C12.0732 9.93482 12.1536 10.0829 12.2001 10.429C12.2488 10.7913 12.25 11.277 12.25 12V15.9375ZM15.25 15.9375H13.375L13.375 11.961C13.375 11.2871 13.375 10.7252 13.3151 10.2791C13.2518 9.80829 13.1125 9.38319 12.7709 9.04159C12.4293 8.69999 12.0042 8.56074 11.5334 8.49743C11.2083 8.45372 10.8216 8.44188 10.375 8.43868V5.829C10.375 4.8273 10.3765 4.13948 10.4497 3.6426C10.5211 3.15783 10.6435 2.98748 10.7785 2.89395C10.9135 2.80041 11.116 2.74562 11.5949 2.84894C12.0859 2.95484 12.7304 3.19498 13.6684 3.5467C14.151 3.72767 14.4695 3.848 14.7039 3.967C14.9258 4.07962 15.0218 4.16707 15.0831 4.25551C15.1443 4.34394 15.1925 4.46454 15.2201 4.71179C15.2492 4.97306 15.25 5.31359 15.25 5.829V15.9375ZM7.5625 10.6875C7.25184 10.6875 7 10.9393 7 11.25C7 11.5607 7.25184 11.8125 7.5625 11.8125H10.5625C10.8732 11.8125 11.125 11.5607 11.125 11.25C11.125 10.9393 10.8732 10.6875 10.5625 10.6875H7.5625ZM7.5625 12.9375C7.25184 12.9375 7 13.1893 7 13.5C7 13.8107 7.25184 14.0625 7.5625 14.0625H10.5625C10.8732 14.0625 11.125 13.8107 11.125 13.5C11.125 13.1893 10.8732 12.9375 10.5625 12.9375H7.5625Z" stroke="black" stroke-width="0.2" stroke-linecap="round"/>
</svg>
